<mxfile host="app.diagrams.net" agent="Mozilla/5.0 (X11; Ubuntu; Linux x86_64; rv:128.0) Gecko/20100101 Firefox/128.0" version="24.7.6">
  <diagram name="Page-1" id="C8XF_Xu8ZPRjyDM8A-fu">
    <mxGraphModel dx="1434" dy="795" grid="1" gridSize="10" guides="1" tooltips="1" connect="1" arrows="1" fold="1" page="1" pageScale="1" pageWidth="850" pageHeight="1100" math="0" shadow="0">
      <root>
        <mxCell id="0" />
        <mxCell id="1" parent="0" />
        <mxCell id="P5b-ebZlCW-qlvgz21b6-19" value="" style="rounded=1;whiteSpace=wrap;html=1;dashed=1;strokeColor=#57e389;strokeWidth=3;" vertex="1" parent="1">
          <mxGeometry x="120" y="326" width="330" height="450" as="geometry" />
        </mxCell>
        <mxCell id="P5b-ebZlCW-qlvgz21b6-8" value="" style="edgeStyle=orthogonalEdgeStyle;rounded=0;orthogonalLoop=1;jettySize=auto;html=1;" edge="1" parent="1" source="P5b-ebZlCW-qlvgz21b6-6" target="P5b-ebZlCW-qlvgz21b6-7">
          <mxGeometry relative="1" as="geometry" />
        </mxCell>
        <mxCell id="P5b-ebZlCW-qlvgz21b6-15" style="edgeStyle=orthogonalEdgeStyle;rounded=0;orthogonalLoop=1;jettySize=auto;html=1;" edge="1" parent="1" source="P5b-ebZlCW-qlvgz21b6-6" target="P5b-ebZlCW-qlvgz21b6-14">
          <mxGeometry relative="1" as="geometry" />
        </mxCell>
        <mxCell id="P5b-ebZlCW-qlvgz21b6-6" value="&lt;div&gt;User&lt;/div&gt;" style="rounded=1;whiteSpace=wrap;html=1;fillColor=#fff2cc;strokeColor=#d6b656;" vertex="1" parent="1">
          <mxGeometry x="190" y="176" width="200" height="80" as="geometry" />
        </mxCell>
        <mxCell id="P5b-ebZlCW-qlvgz21b6-11" style="edgeStyle=orthogonalEdgeStyle;rounded=0;orthogonalLoop=1;jettySize=auto;html=1;" edge="1" parent="1" source="P5b-ebZlCW-qlvgz21b6-7" target="P5b-ebZlCW-qlvgz21b6-9">
          <mxGeometry relative="1" as="geometry" />
        </mxCell>
        <mxCell id="P5b-ebZlCW-qlvgz21b6-7" value="App server" style="whiteSpace=wrap;html=1;rounded=1;fillColor=#fff2cc;strokeColor=#d6b656;" vertex="1" parent="1">
          <mxGeometry x="190" y="376" width="200" height="80" as="geometry" />
        </mxCell>
        <mxCell id="P5b-ebZlCW-qlvgz21b6-9" value="Database server" style="shape=cylinder3;whiteSpace=wrap;html=1;boundedLbl=1;backgroundOutline=1;size=15;fillColor=#dae8fc;strokeColor=#6c8ebf;" vertex="1" parent="1">
          <mxGeometry x="190" y="576" width="200" height="130" as="geometry" />
        </mxCell>
        <mxCell id="P5b-ebZlCW-qlvgz21b6-12" value="" style="edgeStyle=orthogonalEdgeStyle;rounded=0;orthogonalLoop=1;jettySize=auto;html=1;" edge="1" parent="1">
          <mxGeometry relative="1" as="geometry">
            <mxPoint x="300" y="376" as="sourcePoint" />
            <mxPoint x="300" y="256" as="targetPoint" />
          </mxGeometry>
        </mxCell>
        <mxCell id="P5b-ebZlCW-qlvgz21b6-13" style="edgeStyle=orthogonalEdgeStyle;rounded=0;orthogonalLoop=1;jettySize=auto;html=1;" edge="1" parent="1">
          <mxGeometry relative="1" as="geometry">
            <mxPoint x="300" y="576" as="sourcePoint" />
            <mxPoint x="300" y="456" as="targetPoint" />
          </mxGeometry>
        </mxCell>
        <mxCell id="P5b-ebZlCW-qlvgz21b6-14" value="Local device database" style="shape=cylinder3;whiteSpace=wrap;html=1;boundedLbl=1;backgroundOutline=1;size=15;fillColor=#dae8fc;strokeColor=#6c8ebf;" vertex="1" parent="1">
          <mxGeometry x="580" y="256" width="154" height="130" as="geometry" />
        </mxCell>
        <mxCell id="P5b-ebZlCW-qlvgz21b6-16" style="edgeStyle=orthogonalEdgeStyle;rounded=0;orthogonalLoop=1;jettySize=auto;html=1;entryX=1;entryY=0.75;entryDx=0;entryDy=0;" edge="1" parent="1" target="P5b-ebZlCW-qlvgz21b6-6">
          <mxGeometry relative="1" as="geometry">
            <mxPoint x="580" y="333" as="sourcePoint" />
            <mxPoint x="386" y="236" as="targetPoint" />
          </mxGeometry>
        </mxCell>
        <mxCell id="P5b-ebZlCW-qlvgz21b6-17" value="Whispers MVP architecture" style="rounded=1;whiteSpace=wrap;html=1;fillColor=#fff2cc;strokeColor=#d6b656;" vertex="1" parent="1">
          <mxGeometry x="240" y="70" width="400" height="60" as="geometry" />
        </mxCell>
        <mxCell id="P5b-ebZlCW-qlvgz21b6-20" value="&lt;div&gt;firewall&lt;/div&gt;&lt;div&gt;+&lt;/div&gt;&lt;div&gt;CORS&lt;br&gt;&lt;/div&gt;" style="text;html=1;align=center;verticalAlign=middle;resizable=0;points=[];autosize=1;strokeColor=none;fillColor=none;" vertex="1" parent="1">
          <mxGeometry x="143" y="276" width="60" height="60" as="geometry" />
        </mxCell>
      </root>
    </mxGraphModel>
  </diagram>
</mxfile>
